<?xml version="1.0" standalone="no"?>
<!DOCTYPE svg PUBLIC "-//W3C//DTD SVG 1.1//EN" "http://www.w3.org/Graphics/SVG/1.1/DTD/svg11.dtd" >
<svg xmlns="http://www.w3.org/2000/svg">
<metadata></metadata>
<defs>
<font id="frutiger_pflbold" horiz-adv-x="1103" >
<font-face units-per-em="2048" ascent="1638" descent="-410" />
<missing-glyph horiz-adv-x="591" />
<glyph horiz-adv-x="2048" />
<glyph horiz-adv-x="2048" />
<glyph unicode="&#xd;" horiz-adv-x="2048" />
<glyph unicode=" "  horiz-adv-x="591" />
<glyph unicode="&#x09;" horiz-adv-x="591" />
<glyph unicode="&#xa0;" horiz-adv-x="591" />
<glyph unicode="!" horiz-adv-x="626" d="M242 1430h315l-43 -1010h-233zM256 0v287h287v-287h-287z" />
<glyph unicode="&#x22;" horiz-adv-x="882" d="M180 918v512h250v-512h-250zM555 918v512h250v-512h-250z" />
<glyph unicode="#" d="M68 420v164h206l35 262h-180v164h205l57 420h182l-57 -420h209l57 420h181l-58 -420h166v-164h-190l-35 -262h166v-164h-189l-59 -420h-180l59 420h-209l-61 -420h-180l59 420h-184zM457 584h209l34 262h-208z" />
<glyph unicode="$" horiz-adv-x="1067" d="M119 1018q0 188 114 301q106 109 297 131v152h97v-148q182 0 334 -51l-27 -236q-141 61 -291 62q-10 0 -16 -2v-379q215 -86 291 -150q127 -104 126 -290q0 -188 -116 -299q-109 -102 -301 -125v-168h-97v161q-8 -2 -22 -2q-143 0 -367 56l27 258q162 -88 324 -88 q25 0 38 4v383q-211 82 -286 145q-125 104 -125 285zM418 1030q-1 -84 112 -141v319q-113 -51 -112 -178zM627 229q119 51 118 156q1 99 -118 158v-314z" />
<glyph unicode="%" horiz-adv-x="1847" d="M217 1077q0 172 87 274.5t257 102.5q168 0 258 -106q82 -98 82 -271q0 -172 -82 -270q-90 -107 -258 -107q-170 0 -257 102.5t-87 274.5zM430 1077q0 -213 131 -213q127 0 127 213t-127 213q-131 0 -131 -213zM502 -45l884 1520h168l-884 -1520h-168zM1149 352 q0 172 87 274.5t257 102.5q168 0 258 -106q82 -98 82 -271q0 -172 -82 -270q-90 -107 -258 -107q-170 0 -257 102.5t-87 274.5zM1362 352q0 -213 131 -213q127 0 127 213t-127 213q-131 0 -131 -213z" />
<glyph unicode="&#x26;" horiz-adv-x="1464" d="M123 391q0 147 82 246q70 84 219 147q-106 100 -141 150q-57 86 -58 194q0 154 146 246q125 80 288 80q170 0 281 -76q131 -86 131 -248q0 -133 -80 -229q-59 -69 -196 -149l262 -287q82 96 90 311h250q-12 -287 -183 -489l256 -287h-352l-96 127q-150 -152 -389 -152 q-211 0 -350 101q-160 113 -160 315zM397 399q0 -96 72 -153.5t170 -57.5q162 0 250 86l-318 355q-174 -90 -174 -230zM500 1102q0 -53 47 -113q14 -16 88 -90q68 35 119 84q68 66 67 123q0 68 -44 107.5t-113 39.5q-72 0 -118 -41t-46 -110z" />
<glyph unicode="'" horiz-adv-x="487" d="M160 918v512h250v-512h-250z" />
<glyph unicode="(" horiz-adv-x="622" d="M80 631q0 262 84 487q76 201 244 430h260q-152 -242 -219 -436q-78 -225 -78 -481q0 -449 297 -918h-260q-328 444 -328 918z" />
<glyph unicode=")" horiz-adv-x="647" d="M14 -287q297 475 297 918q0 254 -78 481q-68 193 -219 436h258q168 -233 244 -430q86 -225 86 -487q0 -465 -330 -918h-258z" />
<glyph unicode="*" horiz-adv-x="1009" d="M147 1036l68 213l272 -116l-32 297h233l-35 -295l273 114l65 -213l-284 -63l196 -219l-188 -136l-146 254l-155 -254l-187 136l201 219z" />
<glyph unicode="+" horiz-adv-x="1150" d="M94 412v213h414v411h213v-411h414v-213h-414v-412h-213v412h-414z" />
<glyph unicode="," horiz-adv-x="542" d="M47 -225l131 512h297l-186 -512h-242z" />
<glyph unicode="-" horiz-adv-x="700" d="M72 438v226h538v-226h-538z" />
<glyph unicode="." horiz-adv-x="507" d="M141 0v287h287v-287h-287z" />
<glyph unicode="/" horiz-adv-x="757" d="M43 -25l500 1479h213l-500 -1479h-213z" />
<glyph unicode="0" horiz-adv-x="1124" d="M72 711q0 303 96 493q127 250 399 250q500 0 500 -743q0 -307 -94 -494q-127 -242 -406 -242q-496 0 -495 736zM358 700q0 -209 23 -311q47 -201 186 -201q143 0 191 205q23 100 22 318q0 217 -22 321q-47 209 -191 209q-141 0 -186 -215q-23 -102 -23 -326z" />
<glyph unicode="1" horiz-adv-x="911" d="M162 1094l418 336h254v-1430h-287v1104l-242 -197z" />
<glyph unicode="2" horiz-adv-x="1062" d="M84 0v240q342 330 377 366q242 268 241 430q0 92 -73 146q-63 47 -160 47q-156 0 -330 -115l-22 238q203 102 424 102q209 0 325 -102q123 -109 123 -316q0 -203 -192 -446q-84 -106 -346 -365h583v-225h-950z" />
<glyph unicode="3" horiz-adv-x="1067" d="M92 23l17 243q166 -66 317 -65q109 0 195 47q106 57 106 155q0 162 -162 205q-70 18 -293 19v225q203 0 275 16q174 37 174 172q0 188 -246 189q-166 0 -321 -76l-17 229q182 72 400 72q199 0 323 -82q147 -96 148 -285q0 -242 -267 -342v-4q131 -18 205 -112 q68 -92 68 -228q0 -221 -170 -331q-145 -94 -377 -95q-211 1 -375 48z" />
<glyph unicode="4" horiz-adv-x="1153" d="M33 297v231l534 902h357v-920h182v-213h-182v-297h-275v297h-616zM291 510h358v620h-4z" />
<glyph unicode="5" horiz-adv-x="1062" d="M147 16l7 256q172 -72 292 -71q129 0 211 59q94 68 95 193q0 129 -105 194q-86 53 -223 53q-133 0 -256 -38l14 768h822v-213h-551l-7 -306q72 14 132 15q217 0 338.5 -123t121.5 -342q0 -233 -166 -365q-152 -121 -391 -121q-162 0 -334 41z" />
<glyph unicode="6" horiz-adv-x="1079" d="M90 641q0 342 121 551q150 262 467 262q156 0 301 -51l-37 -232q-131 57 -250 58q-170 0 -260 -142q-74 -117 -80 -301l4 -4q98 143 277 144q199 0 308.5 -118t109.5 -319q0 -240 -117 -372q-123 -141 -359 -142q-485 0 -485 666zM377 442q0 -106 45 -174q51 -80 153 -80 q96 0 146 84q43 70 43 172q0 109 -43 181q-52 88 -152 88q-102 0 -151 -88q-41 -72 -41 -183z" />
<glyph unicode="7" horiz-adv-x="1005" d="M102 1204v226h922v-238l-508 -1192h-311l530 1204h-633z" />
<glyph unicode="8" horiz-adv-x="1116" d="M72 387q0 227 262 354v4q-238 104 -238 332q0 190 137 289q121 88 318 88q193 0 321 -74q158 -92 158 -270q0 -111 -66.5 -205t-170.5 -137v-2q274 -127 274 -375q0 -211 -145 -319q-127 -96 -347 -97q-219 0 -352 95q-152 106 -151 317zM358 391q0 -86 64.5 -144.5 t152.5 -58.5t146.5 52.5t58.5 138.5q0 170 -239 248q-183 -89 -183 -236zM371 1069q0 -131 225 -215q63 23 111.5 83t48.5 124q0 80 -48.5 130t-127.5 50q-84 0 -144 -43q-65 -47 -65 -129z" />
<glyph unicode="9" d="M90 940q0 240 117 373q123 141 358 141q485 0 486 -666q0 -342 -121 -550q-150 -262 -467 -263q-156 1 -301 52l37 231q131 -57 250 -57q170 0 260 141q74 117 79 301l-4 4q-96 -143 -276 -143q-199 0 -308.5 117.5t-109.5 318.5zM377 985q0 -109 43 -180q51 -88 151 -88 q102 0 152 88q41 72 41 182q0 106 -45 174q-51 80 -154 80q-96 0 -145 -84q-43 -70 -43 -172z" />
<glyph unicode=":" horiz-adv-x="475" d="M141 0v287h287v-287h-287zM141 768v287h287v-287h-287z" />
<glyph unicode=";" horiz-adv-x="505" d="M47 -225l131 512h297l-186 -512h-242zM141 768v287h287v-287h-287z" />
<glyph unicode="&#x3c;" horiz-adv-x="1155" d="M94 430v176l1041 447v-209l-764 -326l764 -325v-209z" />
<glyph unicode="=" horiz-adv-x="1157" d="M94 188v213h1041v-213h-1041zM94 635v213h1041v-213h-1041z" />
<glyph unicode="&#x3e;" horiz-adv-x="1130" d="M94 -16v209l764 325l-764 326v209l1041 -447v-176z" />
<glyph unicode="?" horiz-adv-x="956" d="M102 1386q227 68 406 68q195 0 319 -84q147 -98 148 -283q0 -119 -96 -241q-86 -98 -172 -199q-90 -117 -80 -229h-252q0 166 78 291q16 27 145 174q78 92 78 172q0 94 -74 143q-63 43 -162 43q-137 0 -315 -82zM358 0v287h287v-287h-287z" />
<glyph unicode="@" horiz-adv-x="1585" d="M76 715q0 322 237 534q229 205 555 205q289 0 484 -154q211 -166 211 -448q0 -174 -87 -309t-245 -211q-104 -49 -184 -49q-109 0 -111 106h-4q-94 -106 -207 -106q-137 0 -227 99t-90 239q0 190 114 335q123 158 307 158q152 0 238 -131l25 98h172l-113 -497 q-14 -63 -14 -70q0 -31 30 -31q117 0 181 131q51 102 51 232q0 219 -162 328q-139 92 -369 92q-238 0 -408.5 -158t-170.5 -393q0 -236 148.5 -393.5t381.5 -157.5q319 0 473 129h174q-215 -317 -647 -318q-319 0 -531 209t-212 531zM621 651q0 -72 40.5 -120t112.5 -48 q96 0 161.5 84t65.5 183q0 72 -40.5 117.5t-110.5 45.5q-96 0 -162.5 -81.5t-66.5 -180.5z" />
<glyph unicode="A" horiz-adv-x="1452" d="M18 0l557 1430h324l561 -1430h-317l-123 328h-580l-125 -328h-297zM522 553h418l-207 590h-4z" />
<glyph unicode="B" horiz-adv-x="1228" d="M166 0v1430h500q203 0 321 -80q139 -92 139 -287q0 -127 -78.5 -212t-205.5 -108v-4q139 -12 233 -100t94 -225q0 -213 -151 -322q-131 -92 -352 -92h-500zM453 225h135q295 0 295 199q0 215 -295 215h-135v-414zM453 852h116q270 0 271 174q0 111 -90 152 q-57 26 -178 26h-9h-110v-352z" />
<glyph unicode="C" horiz-adv-x="1171" d="M96 690q0 365 209 564.5t576 199.5q172 0 323 -59l-20 -242q-133 76 -310 76q-219 0 -349 -148.5t-130 -369.5q0 -225 129 -365q133 -145 357 -145q194 0 313 59l12 -240q-190 -45 -325 -45q-358 0 -566 177q-219 186 -219 538z" />
<glyph unicode="D" horiz-adv-x="1431" d="M166 0v1430h391q825 0 825 -715t-825 -715h-391zM453 225h159q205 0 338 141.5t133 348.5t-133 348t-338 141h-159v-979z" />
<glyph unicode="E" horiz-adv-x="1032" d="M166 0v1430h844v-226h-557v-352h510v-225h-510v-402h561v-225h-848z" />
<glyph unicode="F" horiz-adv-x="946" d="M166 0v1430h795v-226h-508v-352h483v-225h-483v-627h-287z" />
<glyph unicode="G" horiz-adv-x="1378" d="M96 690q0 365 209 564.5t576 199.5q222 0 419 -59l-18 -242q-166 76 -369 76q-236 0 -377 -141.5t-141 -376.5q0 -225 129 -365q133 -145 357 -145q106 0 188 20v373h-303v225h577v-770q-272 -74 -462 -74q-358 0 -566 177q-219 186 -219 538z" />
<glyph unicode="H" horiz-adv-x="1390" d="M166 0v1430h287v-578h573v578h287v-1430h-287v627h-573v-627h-287z" />
<glyph unicode="I" horiz-adv-x="505" d="M141 0v1430h287v-1430h-287z" />
<glyph unicode="J" horiz-adv-x="727" d="M45 2v248q66 -25 137 -25q115 0 156 74q31 55 31 178v953h286v-1090q0 -166 -111.5 -265.5t-279.5 -99.5q-115 0 -219 27z" />
<glyph unicode="K" horiz-adv-x="1310" d="M166 0v1430h287v-615l516 615h352l-588 -674l613 -756h-375l-514 664h-4v-664h-287z" />
<glyph unicode="L" horiz-adv-x="964" d="M166 0v1430h287v-1205h555v-225h-842z" />
<glyph unicode="M" horiz-adv-x="1845" d="M166 0v1430h459l340 -1084h4l340 1084h458v-1430h-274v1180h-4l-385 -1180h-275l-385 1180l-4 -4v-1176h-274z" />
<glyph unicode="N" horiz-adv-x="1404" d="M152 0v1430h352l545 -1070h4v1070h274v-1430h-350l-547 1069h-4v-1069h-274z" />
<glyph unicode="O" horiz-adv-x="1548" d="M96 719q0 336 183.5 535.5t517.5 199.5q330 0 518 -205q182 -199 182 -530q0 -334 -182 -535q-188 -209 -518 -209q-334 0 -523 207q-178 199 -178 537zM395 719q0 -215 90 -354q106 -164 312 -164q205 0 311 164q90 139 90 354q0 209 -94 348q-109 162 -307 162 q-199 0 -308 -162q-94 -139 -94 -348z" />
<glyph unicode="P" horiz-adv-x="1095" d="M141 0v1430h363q596 0 596 -433q0 -238 -162 -354q-141 -100 -389 -100h-121v-543h-287zM428 768h100q272 0 273 213q0 223 -273 223h-100v-436z" />
<glyph unicode="Q" horiz-adv-x="1538" d="M96 719q0 336 183.5 535.5t517.5 199.5q330 0 518 -205q182 -199 182 -530q0 -221 -84 -389q-92 -190 -276 -279l323 -321h-346l-250 250q-23 -4 -67 -5q-334 0 -523 207q-178 199 -178 537zM395 719q0 -215 90 -354q106 -164 312 -164q205 0 311 164q90 139 90 354 q0 209 -94 348q-109 162 -307 162q-199 0 -308 -162q-94 -139 -94 -348z" />
<glyph unicode="R" horiz-adv-x="1206" d="M141 0v1430h383q281 0 408 -58q192 -86 192 -327q0 -134 -81.5 -225t-213.5 -109v-4q94 -8 152 -148l229 -559h-319l-172 446q-43 113 -109 136q-33 12 -182 12v-594h-287zM428 819h94q303 0 303 199q0 117 -100 160q-64 26 -193 26h-10h-94v-385z" />
<glyph unicode="S" horiz-adv-x="1069" d="M119 1018q0 215 145 330q133 106 354 106q189 0 343 -51l-27 -236q-141 61 -291 62q-98 0 -161.5 -51.5t-63.5 -147.5t162 -166q260 -109 303 -137q162 -115 161 -319q0 -223 -163 -336q-139 -96 -373 -97q-143 0 -367 56l27 258q162 -88 324 -88q94 0 167 43 q86 53 86 141q0 109 -161 180q-281 125 -303 140q-162 111 -162 313z" />
<glyph unicode="T" horiz-adv-x="1126" d="M16 1204v226h1106v-226h-409v-1204h-287v1204h-410z" />
<glyph unicode="U" horiz-adv-x="1388" d="M156 516v914h286v-826q0 -403 297 -403t297 403v826h287v-914q0 -541 -584 -541q-583 0 -583 541z" />
<glyph unicode="V" horiz-adv-x="1353" d="M20 1430h308l366 -1123h4l363 1123h285l-482 -1430h-352z" />
<glyph unicode="W" horiz-adv-x="2064" d="M20 1430h302l266 -1143h4l244 1143h389l252 -1143h4l268 1143h279l-373 -1430h-369l-258 1143h-4l-254 -1143h-371z" />
<glyph unicode="X" horiz-adv-x="1339" d="M20 0l469 743l-426 687h332l299 -510l305 510h308l-430 -687l469 -743h-338l-330 557l-334 -557h-324z" />
<glyph unicode="Y" horiz-adv-x="1349" d="M23 1430h335l338 -601l344 601h303l-512 -865v-565h-286v565z" />
<glyph unicode="Z" horiz-adv-x="1081" d="M74 0v233l671 971h-645v226h951v-234l-678 -971h692v-225h-991z" />
<glyph unicode="[" horiz-adv-x="565" d="M147 -287v1835h459v-200h-196v-1434h196v-201h-459z" />
<glyph unicode="\" horiz-adv-x="751" d="M41 1454h213l500 -1479h-213z" />
<glyph unicode="]" horiz-adv-x="612" d="M76 -86h196v1434h-196v200h459v-1835h-459v201z" />
<glyph unicode="^" d="M135 641l383 789h193l383 -789h-213l-267 573l-266 -573h-213z" />
<glyph unicode="_" horiz-adv-x="956" d="M0 -154h1024v-102h-1024v102z" />
<glyph unicode="`" horiz-adv-x="538" d="M59 1497h281l170 -299h-170z" />
<glyph unicode="a" horiz-adv-x="1083" d="M74 289q0 250 241 325q121 37 445 37q0 125 -56.5 176.5t-181.5 51.5q-173 0 -325 -115l-9 235q174 80 367 80q238 0 346.5 -104.5t108.5 -339.5v-135q0 -270 16 -500h-242q-6 33 -12 158h-4q-45 -84 -136 -133.5t-190 -49.5q-147 0 -254 82q-115 88 -114 232zM336 305 q0 -129 174 -129q127 0 192 96q57 82 58 215h-119q-305 0 -305 -182z" />
<glyph unicode="b" horiz-adv-x="1183" d="M141 0v1536h275v-616h4q120 159 313 159h2q227 0 344 -166q98 -145 99 -383q0 -238 -99 -385q-117 -170 -344 -170q-215 0 -323 154h-4v-129h-267zM418 530q0 -133 53 -227q63 -115 188 -115q123 0 183 117q49 92 49 225q0 131 -47 222q-58 114 -178 114h-2 q-121 0 -189 -112q-57 -95 -57 -224z" />
<glyph unicode="c" horiz-adv-x="882" d="M74 532q0 240 133 390q138 157 374 157h3q149 0 266 -35l-25 -217q-84 39 -186 39q-135 0 -211 -102q-68 -92 -68 -232q0 -147 68 -239q74 -104 217 -105q98 0 211 50l12 -228q-113 -35 -274 -35q-250 0 -387 156q-133 150 -133 401z" />
<glyph unicode="d" horiz-adv-x="1202" d="M74 530q0 238 98 383q117 166 344 166q197 0 315 -147h5v604h274v-1536h-266v119h-4q-115 -143 -324 -144q-227 0 -344 170q-98 147 -98 385zM360 530q0 -133 50 -225q59 -117 182 -117q125 0 188 115q53 94 54 227q0 129 -58 224q-67 112 -186 112h-2q-121 0 -180 -114 q-48 -91 -48 -222z" />
<glyph unicode="e" horiz-adv-x="1110" d="M74 522q0 242 123 393q131 164 366 164q281 0 402 -186q100 -154 100 -451h-729q8 -127 90 -196.5t211 -69.5q162 1 350 107v-224q-152 -84 -362 -84q-260 0 -405.5 143.5t-145.5 403.5zM336 631h467q-14 248 -223 248q-111 0 -172.5 -67.5t-71.5 -180.5z" />
<glyph unicode="f" horiz-adv-x="786" d="M39 854v201h203v147q0 162 88 260.5t248 98.5q102 0 200 -23l-22 -227q-61 37 -119 37q-123 0 -123 -199v-51q2 -31 2 -43h240v-201h-240v-854h-274v854h-203z" />
<glyph unicode="g" horiz-adv-x="1187" d="M74 532q0 223 108 375q125 172 338 172q219 0 324 -168h4v144h262v-953q0 -557 -557 -557q-195 0 -365 72l23 233q172 -92 307 -92q188 0 262 119q55 90 56 291h-5q-45 -80 -141 -125q-88 -43 -186 -43q-221 0 -332 162q-98 141 -98 370zM360 532q0 -119 56 -210 q67 -109 178 -109q127 0 190 104q51 86 52 222q0 133 -48 219q-58 108 -180 108h-2q-129 0 -192 -106q-53 -88 -54 -228z" />
<glyph unicode="h" horiz-adv-x="1134" d="M141 0v1536h275v-625h4q115 168 332 168q180 0 274 -118q84 -109 84 -295v-666h-274v563q0 139 -23 201q-39 102 -156 102q-129 0 -190 -116q-51 -94 -51 -234v-516h-275z" />
<glyph unicode="i" horiz-adv-x="505" d="M147 0v1055h275v-1055h-275zM147 1247v262h275v-262h-275z" />
<glyph unicode="j" horiz-adv-x="501" d="M-31 -438l11 196q113 6 143 47q24 34 24 145v9v1096h275v-1133q0 -377 -318 -377q-78 1 -135 17zM147 1247v262h275v-262h-275z" />
<glyph unicode="k" horiz-adv-x="1079" d="M147 0v1536h275v-903h4l328 422h323l-393 -471l442 -584h-348l-352 512h-4v-512h-275z" />
<glyph unicode="l" horiz-adv-x="514" d="M147 0v1536h275v-1536h-275z" />
<glyph unicode="m" horiz-adv-x="1761" d="M137 0v1055h256v-148h4q115 172 314 172q227 0 311 -186q45 90 135 138t195 48q334 0 334 -413v-666h-275v629q0 113 -22 162q-35 75 -133 75h-3q-205 0 -204 -354v-512h-275v629q0 113 -22 162q-35 75 -133 75h-3q-205 0 -204 -354v-512h-275z" />
<glyph unicode="n" horiz-adv-x="1183" d="M141 0v1055h260v-144h5q119 168 346 168q180 0 274 -118q84 -109 84 -295v-666h-274v563q0 139 -23 201q-39 102 -156 102q-129 0 -190 -116q-51 -94 -51 -234v-516h-275z" />
<glyph unicode="o" horiz-adv-x="1234" d="M74 520q0 248 151.5 403.5t399.5 155.5t400.5 -155.5t152.5 -403.5q0 -244 -154 -394.5t-399 -150.5q-244 0 -397.5 150.5t-153.5 394.5zM360 553q0 -365 265 -365q266 0 266 365q0 131 -66 217q-74 96 -200 96q-125 0 -199 -96q-66 -88 -66 -217z" />
<glyph unicode="p" horiz-adv-x="1241" d="M141 -430v1485h262v-150h5q104 174 327 174q227 0 344 -166q98 -145 99 -383q0 -240 -101 -387q-119 -168 -348 -168q-190 0 -309 146h-4v-551h-275zM418 530q0 -133 53 -227q63 -115 188 -115q123 0 183 117q49 92 49 225q0 131 -47 222q-59 114 -180 114t-189 -112 q-57 -94 -57 -224z" />
<glyph unicode="q" horiz-adv-x="1187" d="M74 530q0 242 100 383q117 166 348 166q217 0 322 -174h4v150h262v-1485h-274v551h-5q-119 -145 -309 -146q-229 0 -348 168q-100 147 -100 387zM360 530q0 -133 50 -225q59 -117 182 -117q125 0 188 115q53 94 54 227q0 129 -58 224q-67 112 -188 112t-180 -114 q-47 -90 -48 -222z" />
<glyph unicode="r" horiz-adv-x="788" d="M147 0v1055h244v-240h4q12 100 100.5 182t188.5 82q53 0 84 -8v-276q-39 22 -116 22h-7q-143 0 -194 -155q-29 -90 -29 -275v-387h-275z" />
<glyph unicode="s" horiz-adv-x="880" d="M74 752q0 164 129 252q112 75 280 75h4q119 0 299 -39l-18 -206q-131 45 -246 45q-162 0 -162 -117q0 -63 123 -105q184 -61 232 -92q123 -82 123 -246q0 -174 -140 -266q-121 -78 -303 -78q-141 0 -311 45l16 226q139 -70 271 -70q72 0 121 29q59 35 59 100 q0 82 -123 123q-205 70 -231 84q-123 76 -123 240z" />
<glyph unicode="t" horiz-adv-x="796" d="M29 854v201h202v211l275 88v-299h244v-201h-244v-492q0 -174 129 -174q80 0 125 29l8 -217q-86 -25 -203 -25q-158 0 -246 91.5t-88 250.5v537h-202z" />
<glyph unicode="u" horiz-adv-x="1187" d="M141 389v666h275v-563q0 -139 22 -201q39 -102 156 -103q129 0 190 117q51 94 52 234v516h274v-1055h-260v143h-4q-137 -168 -346 -168q-180 0 -275 119q-84 109 -84 295z" />
<glyph unicode="v" d="M25 1055h294l263 -768h4l254 768h274l-389 -1055h-309z" />
<glyph unicode="w" horiz-adv-x="1802" d="M23 1055h290l234 -781h4l213 781h319l230 -781h4l219 781h262l-323 -1055h-324l-229 805h-4l-226 -805h-313z" />
<glyph unicode="x" horiz-adv-x="1134" d="M18 0l363 553l-326 502h324l207 -344l202 344h291l-315 -502l356 -553h-327l-236 393l-238 -393h-301z" />
<glyph unicode="y" horiz-adv-x="1101" d="M23 1055h303l254 -770h4l254 770h278l-395 -1047q-94 -248 -143 -315q-104 -147 -295 -148q-96 0 -195 29l18 203q51 -18 142 -19q82 0 130 52.5t48 136.5z" />
<glyph unicode="z" horiz-adv-x="985" d="M74 0v223l534 619h-512v213h836v-226l-524 -616h542v-213h-876z" />
<glyph unicode="{" horiz-adv-x="616" d="M37 543v176q82 0 125 53t43 137v363q0 127 90 205q84 72 213 71h154v-164h-93q-66 0 -88 -45q-14 -31 -14 -104v-354q0 -227 -229 -248v-4q229 -20 229 -262v-340q0 -74 14 -105q23 -45 88 -45h93v-164h-154q-131 0 -217 74t-86 203v348q0 88 -39 143q-45 62 -129 62z " />
<glyph unicode="|" horiz-adv-x="411" d="M121 -512v2048h213v-2048h-213z" />
<glyph unicode="}" horiz-adv-x="679" d="M20 -123h93q66 0 88 45q14 31 14 105v340q0 242 229 262v4q-229 20 -229 248v354q0 74 -14 104q-23 45 -88 45h-93v164h154q131 0 217 -73.5t86 -202.5v-363q0 -84 43 -137t125 -53v-176q-84 0 -126 -58.5t-42 -146.5v-348q0 -129 -86 -203t-217 -74h-154v164z" />
<glyph unicode="~" horiz-adv-x="1165" d="M141 516q94 180 248 180q100 0 241.5 -71.5t213.5 -71.5q74 0 170 147l73 -180q-106 -180 -235 -180q-98 0 -236.5 71.5t-224.5 71.5q-108 0 -176 -147z" />
<glyph unicode="&#xa1;" horiz-adv-x="602" d="M240 -375l43 1010h227l45 -1010h-315zM252 768v287h287v-287h-287z" />
<glyph unicode="&#xa2;" horiz-adv-x="1005" d="M176 532q0 240 133 390q139 158 377 157q55 0 82 -4l53 170h119l-57 -186q27 -2 69 -15l-24 -217q-53 25 -107 33l-198 -645q51 -27 125 -27q98 0 210 50l13 -228q-113 -35 -275 -35q-84 0 -143 17l-55 -176h-119l65 213q-268 133 -268 503zM463 532q-1 -145 65 -235 l174 569q-119 -14 -182 -116q-57 -90 -57 -218z" />
<glyph unicode="&#xa3;" horiz-adv-x="1048" d="M111 0v213h180v449h-156v163h156v172q0 203 145 332q139 125 346 125q150 0 267 -35l-15 -225q-125 35 -198 35q-119 0 -188.5 -73t-69.5 -193v-138h301v-163h-301v-449h456v-213h-923z" />
<glyph unicode="&#xa4;" horiz-adv-x="1157" d="M37 307l119 119q-94 133 -95 293q0 158 95 293l-119 118l121 121l118 -118q131 94 293 94q158 0 293 -94l119 118l121 -121l-119 -118q94 -131 94 -291q0 -158 -94 -295l119 -119l-121 -121l-119 119q-135 -94 -293 -94t-293 94l-118 -119zM287 719q0 -119 82 -207 t200 -88q119 0 201 88t82 207t-82 207t-201 88t-200.5 -88t-81.5 -207z" />
<glyph unicode="&#xa5;" horiz-adv-x="1083" d="M-20 1430h288l310 -631l315 631h268l-354 -674h201v-164h-287l-14 -27v-100h301v-164h-301v-301h-275v301h-301v164h301v100l-16 27h-285v164h205z" />
<glyph unicode="&#xa6;" horiz-adv-x="397" d="M121 358h213v-716h-213v716zM121 666v716h213v-716h-213z" />
<glyph unicode="&#xa7;" horiz-adv-x="1048" d="M135 584q0 184 158 276q-143 98 -143 244q0 168 143 266q125 84 303 84q113 0 328 -41l-23 -223q-135 51 -293 51q-197 0 -196 -139q0 -86 153 -146q266 -104 287 -116q154 -92 154 -252q0 -178 -152 -262q139 -82 139 -234q0 -172 -143 -276q-131 -94 -309 -95 q-137 0 -379 60l18 233q195 -80 344 -80q207 0 207 142q0 82 -153 145q-270 109 -289 119q-154 90 -154 244zM348 633q0 -80 152 -150q109 -45 219 -92q74 63 74 154q0 90 -146 155q-113 41 -225 84q-74 -53 -74 -151z" />
<glyph unicode="&#xa8;" horiz-adv-x="638" d="M-45 1247v238h238v-238h-238zM377 1247v238h237v-238h-237z" />
<glyph unicode="&#xa9;" horiz-adv-x="1595" d="M80 715q0 305 217 522t522 217t522.5 -217t217.5 -522t-217.5 -522.5t-522.5 -217.5t-522 217.5t-217 522.5zM293 715q0 -242 141 -404q147 -172 385 -172q236 0 385 172q142 164 142 404q0 238 -142 403q-150 172 -385 172q-236 0 -385 -172q-141 -164 -141 -403z M430 721q0 190 111.5 313t302.5 123q143 0 239.5 -82t116.5 -225h-164q-27 143 -192 143q-109 0 -164 -84q-49 -74 -49 -186q0 -109 53 -186q61 -88 164 -88q174 0 188 147h170q-20 -141 -118.5 -226t-239.5 -85q-186 0 -302 123.5t-116 312.5z" />
<glyph unicode="&#xaa;" horiz-adv-x="722" d="M57 967q0 156 156 204q80 25 283 25q0 135 -150 135q-111 0 -215 -63v135q100 51 246 51q154 0 224.5 -63.5t70.5 -214.5q0 -234 10 -373h-172l-6 86h-4q-43 -102 -193 -103q-98 0 -166 41q-84 49 -84 140zM233 977q0 -68 107 -68q74 0 116 50.5t42 125.5h-76 q-189 1 -189 -108z" />
<glyph unicode="&#xab;" d="M100 551l242 420h258l-225 -420l225 -420h-258zM557 551l242 420h258l-226 -420l226 -420h-258z" />
<glyph unicode="&#xac;" horiz-adv-x="1220" d="M94 635v213h1041v-627h-213v414h-828z" />
<glyph unicode="&#xad;" horiz-adv-x="700" d="M72 438v226h538v-226h-538z" />
<glyph unicode="&#xae;" horiz-adv-x="1595" d="M80 715q0 305 217 522t522 217t522.5 -217t217.5 -522t-217.5 -522.5t-522.5 -217.5t-522 217.5t-217 522.5zM293 715q0 -242 141 -404q147 -172 385 -172q236 0 385 172q141 164 142 404q0 238 -142 403q-150 172 -385 172q-236 0 -385 -172q-141 -163 -141 -403z M522 307v821h309q328 0 328 -245q0 -203 -217 -219l217 -357h-180l-197 348h-84v-348h-176zM698 791h144q70 0 100 18q41 23 41 90q0 94 -160 94h-125v-202z" />
<glyph unicode="&#xaf;" horiz-adv-x="628" d="M-10 1266v164h590v-164h-590z" />
<glyph unicode="&#xb0;" horiz-adv-x="788" d="M80 1124q0 137 96.5 233.5t233.5 96.5t233 -96t96 -234q0 -139 -95 -234t-234 -95q-143 0 -236.5 93t-93.5 236zM229 1124q0 -80 50.5 -130t130.5 -50t130 50t50 130t-50 130.5t-130 50.5t-130.5 -50.5t-50.5 -130.5z" />
<glyph unicode="&#xb1;" horiz-adv-x="1161" d="M94 0v213h1041v-213h-1041zM94 553v213h414v270h213v-270h414v-213h-414v-272h-213v272h-414z" />
<glyph unicode="&#xb2;" horiz-adv-x="737" d="M61 578v167q86 31 228 185q150 160 149 241q0 106 -125 107q-117 0 -215 -70l-14 178q127 68 276 68q139 0 224 -61q92 -68 92 -203q0 -111 -121 -252q-113 -129 -225 -180v-4h350v-176h-619z" />
<glyph unicode="&#xb3;" horiz-adv-x="733" d="M53 600l10 170q139 -41 222 -41q59 0 104 23q59 29 60 82q0 100 -150 100q-74 0 -115 -6v172q23 2 60 0q47 -2 59 -2q51 0 94 22q51 29 52 76q0 94 -132 94q-131 0 -223 -53l-10 168q141 49 264 49t211 -45q115 -57 115 -166q0 -172 -170 -215v-4q82 -6 132 -60.5 t50 -136.5q0 -133 -127 -204q-104 -57 -248 -58q-125 0 -258 35z" />
<glyph unicode="&#xb4;" horiz-adv-x="475" d="M59 1198l170 299h281l-281 -299h-170z" />
<glyph unicode="&#xb6;" horiz-adv-x="1173" d="M4 1057q0 373 492 373h600v-1684h-213v1520h-217v-1520h-213v952q-190 0 -310 82q-139 96 -139 277z" />
<glyph unicode="&#xb7;" horiz-adv-x="501" d="M127 582q0 70 44 113.5t114 43.5t113.5 -44t43.5 -113q0 -70 -43.5 -114t-113.5 -44t-114 44t-44 114z" />
<glyph unicode="&#xb8;" horiz-adv-x="604" d="M154 -412l41 111q96 -31 143 -31q109 0 108 72q0 74 -90 74q-35 0 -86 -19l-30 53l120 152h129l-94 -109l4 -4q72 12 84 13q68 0 116 -38t48 -104q0 -104 -78 -161q-70 -51 -178 -52q-145 0 -237 43z" />
<glyph unicode="&#xb9;" horiz-adv-x="575" d="M25 1237l284 205h193v-864h-213v655l-158 -121z" />
<glyph unicode="&#xba;" horiz-adv-x="819" d="M43 1122q0 150 111 242q104 90 256 90q150 0 255 -92t105 -240q0 -154 -103.5 -245t-258.5 -91q-156 0 -260.5 91.5t-104.5 244.5zM244 1122q0 -213 166 -213q160 0 159 213q0 86 -34 142q-41 67 -121 67q-170 0 -170 -209z" />
<glyph unicode="&#xbb;" horiz-adv-x="1099" d="M82 131l225 420l-225 420h258l242 -420l-242 -420h-258zM539 131l225 420l-225 420h258l241 -420l-241 -420h-258z" />
<glyph unicode="&#xbc;" horiz-adv-x="1665" d="M41 1237l285 205h192v-864h-213v655l-158 -121zM336 -45l854 1520h168l-854 -1520h-168zM932 162v174l368 528h256v-538h99v-164h-99v-162h-213v162h-411zM1106 326h237v350h-4z" />
<glyph unicode="&#xbd;" horiz-adv-x="1656" d="M20 1235l285 207h193v-864h-213v655l-158 -123zM274 -45l854 1520h168l-854 -1520h-168zM1022 0v168q86 31 227 184q150 160 150 242q0 106 -125 106q-117 0 -215 -69l-15 178q127 68 277 68q139 0 223 -62q92 -68 92 -203q0 -111 -120 -252q-113 -129 -226 -180v-4h350 v-176h-618z" />
<glyph unicode="&#xbe;" horiz-adv-x="1689" d="M29 600l10 170q139 -41 233 -41q59 0 105 23q59 29 59 82q0 100 -162 100q-74 0 -114 -6v172q23 2 59 0q47 -2 60 -2q57 0 100 20q57 27 57 78q0 94 -143 94q-131 0 -223 -53l-11 168q141 49 265 49q123 0 211 -45q115 -57 114 -166q0 -172 -170 -215v-4 q82 -6 132.5 -60.5t50.5 -136.5q0 -133 -127 -204q-104 -57 -248 -58q-125 0 -258 35zM360 -45l854 1520h168l-854 -1520h-168zM956 162v174l369 528h256v-538h98v-164h-98v-162h-213v162h-412zM1135 326h233v350h-4z" />
<glyph unicode="&#xbf;" horiz-adv-x="860" d="M49 -33q0 119 96 242q86 98 172 199q90 117 80 229h252q0 -164 -78 -289q-16 -25 -145 -174q-78 -92 -78 -174q0 -94 74 -143q63 -43 162 -43q161 0 315 82l23 -228q-160 -68 -406 -67q-197 0 -321 82q-145 98 -146 284zM377 768v287h287v-287h-287z" />
<glyph unicode="&#xc0;" horiz-adv-x="1443" d="M18 0l557 1430h324l561 -1430h-317l-123 328h-580l-125 -328h-297zM456 1821h281l170 -299h-170zM522 553h418l-207 590h-4z" />
<glyph unicode="&#xc1;" horiz-adv-x="1447" d="M18 0l557 1430h324l561 -1430h-317l-123 328h-580l-125 -328h-297zM522 553h418l-207 590h-4zM571 1522l170 299h281l-281 -299h-170z" />
<glyph unicode="&#xc2;" horiz-adv-x="1447" d="M18 0l557 1430h324l561 -1430h-317l-123 328h-580l-125 -328h-297zM416 1522l225 299h207l215 -299h-182l-139 176l-144 -176h-182zM522 553h418l-207 590h-4z" />
<glyph unicode="&#xc3;" horiz-adv-x="1447" d="M18 0l557 1430h324l561 -1430h-317l-123 328h-580l-125 -328h-297zM377 1559q0 92 59.5 170t149.5 78q59 0 162.5 -43t152.5 -43q90 0 91 100h110q0 -100 -47 -170q-55 -78 -151 -78q-68 0 -170.5 38t-145.5 38q-41 0 -70.5 -24.5t-29.5 -65.5h-111zM522 553h418 l-207 590h-4z" />
<glyph unicode="&#xc4;" horiz-adv-x="1447" d="M18 0l557 1430h324l561 -1430h-317l-123 328h-580l-125 -328h-297zM410 1571v238h238v-238h-238zM522 553h418l-207 590h-4zM832 1571v238h237v-238h-237z" />
<glyph unicode="&#xc5;" horiz-adv-x="1447" d="M18 0l557 1430h324l561 -1430h-317l-123 328h-580l-125 -328h-297zM522 553h418l-207 590h-4zM523 1696q0 88 65.5 153.5t153.5 65.5q90 0 153.5 -64.5t63.5 -154.5t-63.5 -153.5t-153.5 -63.5t-154.5 63.5t-64.5 153.5zM633 1696q0 -45 32 -76t77 -31t75.5 31t30.5 76 t-30.5 76.5t-75.5 31.5t-77 -31.5t-32 -76.5z" />
<glyph unicode="&#xc6;" horiz-adv-x="1847" d="M18 0l783 1430h1022v-226h-555l28 -352h482v-225h-457l33 -402h477v-225h-756l-24 328h-549l-176 -328h-308zM625 553h405l-47 664h-4z" />
<glyph unicode="&#xc7;" horiz-adv-x="1179" d="M96 690q0 365 209 564.5t576 199.5q172 0 323 -59l-20 -242q-133 76 -310 76q-219 0 -349 -148.5t-130 -369.5q0 -225 129 -365q133 -145 357 -145q196 0 313 59l12 -240q-199 -47 -311 -47q-27 0 -43 4l-74 -86l4 -4q61 12 84 13q68 0 116 -38t48 -104q0 -104 -78 -161 q-70 -51 -178 -52q-145 0 -237 43l41 111q94 -31 143 -31q109 0 108 72q0 74 -90 74q-37 0 -86 -19l-30 53l110 140q-305 33 -471 215t-166 487z" />
<glyph unicode="&#xc8;" horiz-adv-x="1015" d="M166 0v1430h844v-226h-557v-352h510v-225h-510v-402h561v-225h-848zM286 1821h281l170 -299h-170z" />
<glyph unicode="&#xc9;" horiz-adv-x="1015" d="M166 0v1430h844v-226h-557v-352h510v-225h-510v-402h561v-225h-848zM401 1522l170 299h281l-281 -299h-170z" />
<glyph unicode="&#xca;" horiz-adv-x="1015" d="M166 0v1430h844v-226h-557v-352h510v-225h-510v-402h561v-225h-848zM246 1522l225 299h207l215 -299h-182l-139 176l-144 -176h-182z" />
<glyph unicode="&#xcb;" horiz-adv-x="1015" d="M166 0v1430h844v-226h-557v-352h510v-225h-510v-402h561v-225h-848zM240 1571v238h238v-238h-238zM662 1571v238h237v-238h-237z" />
<glyph unicode="&#xcc;" horiz-adv-x="507" d="M4 1821h281l170 -299h-170zM141 0v1430h287v-1430h-287z" />
<glyph unicode="&#xcd;" horiz-adv-x="530" d="M116 1522l170 299h281l-281 -299h-170zM141 0v1430h287v-1430h-287z" />
<glyph unicode="&#xce;" horiz-adv-x="567" d="M-39 1522l225 299h207l215 -299h-182l-139 176l-144 -176h-182zM141 0v1430h287v-1430h-287z" />
<glyph unicode="&#xcf;" horiz-adv-x="573" d="M-45 1571v238h238v-238h-238zM141 0v1430h287v-1430h-287zM377 1571v238h237v-238h-237z" />
<glyph unicode="&#xd0;" horiz-adv-x="1431" d="M35 688v176h131v566h391q825 0 825 -715t-825 -715h-391v688h-131zM453 225h159q205 0 338 141.5t133 348.5t-133 348t-338 141h-159v-340h299v-176h-299v-463z" />
<glyph unicode="&#xd1;" horiz-adv-x="1404" d="M152 0v1430h352l545 -1070h4v1070h274v-1430h-350l-547 1069h-4v-1069h-274zM377 1559q0 92 59.5 170t149.5 78q59 0 162.5 -43t152.5 -43q90 0 91 100h110q0 -100 -47 -170q-55 -78 -151 -78q-68 0 -170.5 38t-145.5 38q-41 0 -70.5 -24.5t-29.5 -65.5h-111z" />
<glyph unicode="&#xd2;" horiz-adv-x="1538" d="M96 719q0 336 183.5 535.5t517.5 199.5q330 0 518 -205q182 -199 182 -530q0 -334 -182 -535q-188 -209 -518 -209q-334 0 -523 207q-178 199 -178 537zM395 719q0 -215 90 -354q106 -164 312 -164q205 0 311 164q90 139 90 354q0 209 -94 348q-109 162 -307 162 q-199 0 -308 -162q-94 -139 -94 -348zM514 1821h281l170 -299h-170z" />
<glyph unicode="&#xd3;" horiz-adv-x="1546" d="M96 719q0 336 183.5 535.5t517.5 199.5q330 0 518 -205q182 -199 182 -530q0 -334 -182 -535q-188 -209 -518 -209q-334 0 -523 207q-178 199 -178 537zM395 719q0 -215 90 -354q106 -164 312 -164q205 0 311 164q90 139 90 354q0 209 -94 348q-109 162 -307 162 q-199 0 -308 -162q-94 -139 -94 -348zM628 1522l170 299h281l-281 -299h-170z" />
<glyph unicode="&#xd4;" horiz-adv-x="1538" d="M96 719q0 336 183.5 535.5t517.5 199.5q330 0 518 -205q182 -199 182 -530q0 -334 -182 -535q-188 -209 -518 -209q-334 0 -523 207q-178 199 -178 537zM395 719q0 -215 90 -354q106 -164 312 -164q205 0 311 164q90 139 90 354q0 209 -94 348q-109 162 -307 162 q-199 0 -308 -162q-94 -139 -94 -348zM416 1515l170 299h280l-280 -299h-170zM819 1517l170 299h281l-281 -299h-170z" />
<glyph unicode="&#xd5;" horiz-adv-x="1538" d="M96 719q0 336 183.5 535.5t517.5 199.5q330 0 518 -205q182 -199 182 -530q0 -334 -182 -535q-188 -209 -518 -209q-334 0 -523 207q-178 199 -178 537zM395 719q0 -215 90 -354q106 -164 312 -164q205 0 311 164q90 139 90 354q0 209 -94 348q-109 162 -307 162 q-199 0 -308 -162q-94 -139 -94 -348zM416 1515l170 299h280l-280 -299h-170zM819 1517l170 299h281l-281 -299h-170z" />
<glyph unicode="&#xd6;" horiz-adv-x="1546" d="M96 719q0 336 183.5 535.5t517.5 199.5q330 0 518 -205q182 -199 182 -530q0 -334 -182 -535q-188 -209 -518 -209q-334 0 -523 207q-178 199 -178 537zM395 719q0 -215 90 -354q106 -164 312 -164q205 0 311 164q90 139 90 354q0 209 -94 348q-109 162 -307 162 q-199 0 -308 -162q-94 -139 -94 -348zM467 1571v238h238v-238h-238zM889 1571v238h237v-238h-237z" />
<glyph unicode="&#xd7;" horiz-adv-x="1140" d="M135 186l332 332l-332 332l148 147l331 -331l332 331l148 -147l-334 -332l334 -332l-148 -147l-332 334l-331 -334z" />
<glyph unicode="&#xd8;" horiz-adv-x="1548" d="M96 719q0 336 183.5 535.5t517.5 199.5q236 0 405 -108l111 143l92 -76l-111 -143q203 -201 203 -551q0 -334 -182 -535q-188 -209 -518 -209q-250 0 -418 117l-117 -151l-92 73l121 156q-195 193 -195 549zM395 719q0 -191 72 -322l575 742q-100 90 -245 90 q-199 0 -308 -162q-94 -139 -94 -348zM541 299q98 -98 256 -98q205 0 311 164q90 139 90 354q0 192 -80 323z" />
<glyph unicode="&#xd9;" horiz-adv-x="1392" d="M156 516v914h286v-826q0 -403 297 -403t297 403v826h287v-914q0 -541 -584 -541q-583 0 -583 541zM456 1821h281l170 -299h-170z" />
<glyph unicode="&#xda;" horiz-adv-x="1392" d="M156 516v914h286v-826q0 -403 297 -403t297 403v826h287v-914q0 -541 -584 -541q-583 0 -583 541zM571 1522l170 299h281l-281 -299h-170z" />
<glyph unicode="&#xdb;" horiz-adv-x="1394" d="M156 516v914h286v-826q0 -403 297 -403t297 403v826h287v-914q0 -541 -584 -541q-583 0 -583 541zM355 1515l170 299h280l-280 -299h-170zM758 1517l170 299h281l-281 -299h-170z" />
<glyph unicode="&#xdc;" horiz-adv-x="1388" d="M156 516v914h286v-826q0 -403 297 -403t297 403v826h287v-914q0 -541 -584 -541q-583 0 -583 541zM410 1571v238h238v-238h-238zM832 1571v238h237v-238h-237z" />
<glyph unicode="&#xdd;" horiz-adv-x="1320" d="M23 1430h335l338 -601l344 601h303l-512 -865v-565h-286v565zM516 1522l170 299h281l-281 -299h-170z" />
<glyph unicode="&#xde;" horiz-adv-x="1116" d="M141 0v1430h287v-238q301 0 451 -68q221 -100 221 -366q0 -238 -162 -352q-141 -100 -389 -101h-121v-305h-287zM428 530h100q272 0 273 213q0 223 -273 224h-100v-437z" />
<glyph unicode="&#xdf;" horiz-adv-x="1224" d="M147 0v1034q0 244 131.5 385.5t372.5 141.5q184 0 318 -95q147 -106 147 -282q0 -291 -272 -363v-4q150 -18 248 -123.5t98 -253.5q0 -207 -135 -329.5t-344 -122.5q-55 0 -179 22l9 213q63 -23 143 -22q219 0 219 268q0 231 -321 231v213q248 0 247 224q0 92 -45 147 q-49 63 -137 64q-111 0 -172 -95q-53 -80 -53 -196v-1057h-275z" />
<glyph unicode="&#xe0;" horiz-adv-x="1048" d="M74 289q0 250 241 325q121 37 445 37q0 125 -56.5 176.5t-181.5 51.5q-173 0 -325 -115l-9 235q174 80 367 80q238 0 346.5 -104.5t108.5 -339.5v-135q0 -270 16 -500h-242q-6 33 -12 158h-4q-45 -84 -136 -133.5t-190 -49.5q-147 0 -254 82q-115 88 -114 232zM252 1497 h281l170 -299h-170zM336 305q0 -129 174 -129q127 0 192 96q57 82 58 215h-119q-305 0 -305 -182z" />
<glyph unicode="&#xe1;" horiz-adv-x="1054" d="M74 289q0 250 241 325q121 37 445 37q0 125 -56.5 176.5t-181.5 51.5q-173 0 -325 -115l-9 235q174 80 367 80q238 0 346.5 -104.5t108.5 -339.5v-135q0 -270 16 -500h-242q-6 33 -12 158h-4q-45 -84 -136 -133.5t-190 -49.5q-147 0 -254 82q-115 88 -114 232zM336 305 q0 -129 174 -129q127 0 192 96q57 82 58 215h-119q-305 0 -305 -182zM417 1198l170 299h281l-281 -299h-170z" />
<glyph unicode="&#xe2;" horiz-adv-x="1056" d="M74 289q0 250 241 325q121 37 445 37q0 125 -56.5 176.5t-181.5 51.5q-173 0 -325 -115l-9 235q174 80 367 80q238 0 346.5 -104.5t108.5 -339.5v-135q0 -270 16 -500h-242q-6 33 -12 158h-4q-45 -84 -136 -133.5t-190 -49.5q-147 0 -254 82q-115 88 -114 232zM246 1198 l225 299h207l215 -299h-182l-139 176l-144 -176h-182zM336 305q0 -129 174 -129q127 0 192 96q57 82 58 215h-119q-305 0 -305 -182z" />
<glyph unicode="&#xe3;" horiz-adv-x="1054" d="M74 289q0 250 241 325q121 37 445 37q0 125 -56.5 176.5t-181.5 51.5q-173 0 -325 -115l-9 235q174 80 367 80q238 0 346.5 -104.5t108.5 -339.5v-135q0 -270 16 -500h-242q-6 33 -12 158h-4q-45 -84 -136 -133.5t-190 -49.5q-147 0 -254 82q-115 88 -114 232zM207 1235 q0 92 59.5 170t149.5 78q59 0 162.5 -43t152.5 -43q90 0 91 100h110q0 -100 -47 -170q-55 -78 -151 -78q-68 0 -170.5 38t-145.5 38q-41 0 -70.5 -24.5t-29.5 -65.5h-111zM336 305q0 -129 174 -129q127 0 192 96q57 82 58 215h-119q-305 0 -305 -182z" />
<glyph unicode="&#xe4;" horiz-adv-x="1056" d="M74 289q0 250 241 325q121 37 445 37q0 125 -56.5 176.5t-181.5 51.5q-173 0 -325 -115l-9 235q174 80 367 80q238 0 346.5 -104.5t108.5 -339.5v-135q0 -270 16 -500h-242q-6 33 -12 158h-4q-45 -84 -136 -133.5t-190 -49.5q-147 0 -254 82q-115 88 -114 232zM240 1247 v238h238v-238h-238zM336 305q0 -129 174 -129q127 0 192 96q57 82 58 215h-119q-305 0 -305 -182zM662 1247v238h237v-238h-237z" />
<glyph unicode="&#xe5;" horiz-adv-x="1050" d="M74 289q0 250 241 325q121 37 445 37q0 125 -56.5 176.5t-181.5 51.5q-173 0 -325 -115l-9 235q174 80 367 80q238 0 346.5 -104.5t108.5 -339.5v-135q0 -270 16 -500h-242q-6 33 -12 158h-4q-45 -84 -136 -133.5t-190 -49.5q-147 0 -254 82q-115 88 -114 232zM336 305 q0 -129 174 -129q127 0 192 96q57 82 58 215h-119q-305 0 -305 -182zM353 1403q0 88 65.5 153.5t153.5 65.5q90 0 153.5 -64.5t63.5 -154.5t-63.5 -153.5t-153.5 -63.5t-154.5 63.5t-64.5 153.5zM463 1403q0 -45 32 -76t77 -31t75.5 31t30.5 76t-30.5 76.5t-75.5 31.5 t-77 -31.5t-32 -76.5z" />
<glyph unicode="&#xe6;" horiz-adv-x="1792" d="M74 289q0 242 243 319q133 43 443 43q0 123 -59.5 176.5t-184.5 53.5q-172 0 -326 -117l-8 235q174 80 375 80q121 0 195 -22q90 -31 163 -111q127 133 361 133q471 0 471 -637h-725q0 -127 90 -198q84 -68 213 -68q160 1 350 107v-224q-152 -84 -362 -84 q-309 0 -443 191q-117 -190 -393 -191q-168 0 -276 72q-127 82 -127 242zM336 289q0 -55 53 -86q43 -27 103 -27q150 0 213 84q55 72 55 227h-119q-305 1 -305 -198zM1022 631h463q0 109 -53 174q-57 74 -162 74q-113 0 -180.5 -67.5t-67.5 -180.5z" />
<glyph unicode="&#xe7;" horiz-adv-x="880" d="M74 532q0 240 133 390q139 158 377 157q149 0 266 -35l-25 -217q-84 39 -186 39q-135 0 -211 -102q-68 -92 -68 -232q0 -147 68 -239q74 -104 217 -105q98 0 211 50l12 -228q-98 -31 -227 -33l-76 -86l4 -4q66 12 84 13q68 0 116 -38t48 -104q0 -104 -78 -161 q-70 -51 -178 -52q-145 0 -237 43l41 111q94 -31 143 -31q109 0 108 72q0 74 -90 74q-37 0 -86 -19l-30 53l106 134q-217 23 -334 180q-109 145 -108 370z" />
<glyph unicode="&#xe8;" horiz-adv-x="1079" d="M74 522q0 242 123 393q131 164 366 164q281 0 402 -186q100 -154 100 -451h-729q8 -127 90 -196.5t211 -69.5q162 1 350 107v-224q-152 -84 -362 -84q-260 0 -405.5 143.5t-145.5 403.5zM252 1497h281l170 -299h-170zM336 631h467q-14 248 -223 248q-111 0 -172.5 -67.5 t-71.5 -180.5z" />
<glyph unicode="&#xe9;" horiz-adv-x="1073" d="M74 522q0 242 123 393q131 164 366 164q281 0 402 -186q100 -154 100 -451h-729q8 -127 90 -196.5t211 -69.5q162 1 350 107v-224q-152 -84 -362 -84q-260 0 -405.5 143.5t-145.5 403.5zM336 631h467q-14 248 -223 248q-111 0 -172.5 -67.5t-71.5 -180.5zM417 1198 l170 299h281l-281 -299h-170z" />
<glyph unicode="&#xea;" horiz-adv-x="1075" d="M74 522q0 242 123 393q131 164 366 164q281 0 402 -186q100 -154 100 -451h-729q8 -127 90 -196.5t211 -69.5q162 1 350 107v-224q-152 -84 -362 -84q-260 0 -405.5 143.5t-145.5 403.5zM246 1198l225 299h207l215 -299h-182l-139 176l-144 -176h-182zM336 631h467 q-14 248 -223 248q-111 0 -172.5 -67.5t-71.5 -180.5z" />
<glyph unicode="&#xeb;" horiz-adv-x="1075" d="M74 522q0 242 123 393q131 164 366 164q281 0 402 -186q100 -154 100 -451h-729q8 -127 90 -196.5t211 -69.5q162 1 350 107v-224q-152 -84 -362 -84q-260 0 -405.5 143.5t-145.5 403.5zM240 1247v238h238v-238h-238zM336 631h467q-14 248 -223 248q-111 0 -172.5 -67.5 t-71.5 -180.5zM662 1247v238h237v-238h-237z" />
<glyph unicode="&#xec;" horiz-adv-x="491" d="M-31 1497h281l170 -299h-170zM147 0v1055h275v-1055h-275z" />
<glyph unicode="&#xed;" horiz-adv-x="544" d="M133 1198l170 299h281l-281 -299h-170zM147 0v1055h275v-1055h-275z" />
<glyph unicode="&#xee;" horiz-adv-x="567" d="M-39 1198l225 299h207l215 -299h-182l-139 176l-144 -176h-182zM147 0v1055h275v-1055h-275z" />
<glyph unicode="&#xef;" horiz-adv-x="573" d="M-45 1247v238h238v-238h-238zM147 0v1055h275v-1055h-275zM377 1247v238h237v-238h-237z" />
<glyph unicode="&#xf0;" horiz-adv-x="1208" d="M74 520q0 223 125 375q133 160 352 160q152 0 252 -66h4q-66 139 -217 254l-189 -123l-104 97l170 110q-100 63 -203 98l125 140q135 -49 260 -121l189 121l104 -97l-170 -108q399 -307 399 -782q0 -279 -133 -435q-141 -168 -413 -168q-244 0 -397.5 152t-153.5 393z M360 514q0 -135 64 -225q72 -100 203 -101q131 0 198 101q59 88 60 225q0 129 -62 221q-71 107 -194 107q-125 0 -201 -105q-68 -94 -68 -223z" />
<glyph unicode="&#xf1;" horiz-adv-x="1155" d="M141 0v1055h260v-144h5q119 168 346 168q180 0 274 -118q84 -109 84 -295v-666h-274v563q0 139 -23 201q-39 102 -156 102q-129 0 -190 -116q-51 -94 -51 -234v-516h-275zM264 1235q0 92 59.5 170t149.5 78q59 0 162.5 -43t152.5 -43q90 0 91 100h110q0 -100 -47 -170 q-55 -78 -151 -78q-68 0 -170.5 38t-145.5 38q-41 0 -70.5 -24.5t-29.5 -65.5h-111z" />
<glyph unicode="&#xf2;" horiz-adv-x="1189" d="M74 520q0 248 151.5 403.5t399.5 155.5t400.5 -155.5t152.5 -403.5q0 -244 -154 -394.5t-399 -150.5q-244 0 -397.5 150.5t-153.5 394.5zM309 1497h281l170 -299h-170zM360 553q0 -365 265 -365q266 0 266 365q0 131 -66 217q-74 96 -200 96q-125 0 -199 -96 q-66 -88 -66 -217z" />
<glyph unicode="&#xf3;" horiz-adv-x="1206" d="M74 520q0 248 151.5 403.5t399.5 155.5t400.5 -155.5t152.5 -403.5q0 -244 -154 -394.5t-399 -150.5q-244 0 -397.5 150.5t-153.5 394.5zM360 553q0 -365 265 -365q266 0 266 365q0 131 -66 217q-74 96 -200 96q-125 0 -199 -96q-66 -88 -66 -217zM475 1198l170 299h281 l-281 -299h-170z" />
<glyph unicode="&#xf4;" horiz-adv-x="1214" d="M74 520q0 248 151.5 403.5t399.5 155.5t400.5 -155.5t152.5 -403.5q0 -244 -154 -394.5t-399 -150.5q-244 0 -397.5 150.5t-153.5 394.5zM267 1196l170 299h280l-280 -299h-170zM360 553q0 -365 265 -365q266 0 266 365q0 131 -66 217q-74 96 -200 96q-125 0 -199 -96 q-66 -88 -66 -217zM670 1198l170 299h281l-281 -299h-170z" />
<glyph unicode="&#xf5;" horiz-adv-x="1214" d="M74 520q0 248 151.5 403.5t399.5 155.5t400.5 -155.5t152.5 -403.5q0 -244 -154 -394.5t-399 -150.5q-244 0 -397.5 150.5t-153.5 394.5zM267 1196l170 299h280l-280 -299h-170zM360 553q0 -365 265 -365q266 0 266 365q0 131 -66 217q-74 96 -200 96q-125 0 -199 -96 q-66 -88 -66 -217zM670 1198l170 299h281l-281 -299h-170z" />
<glyph unicode="&#xf6;" horiz-adv-x="1208" d="M74 520q0 248 151.5 403.5t399.5 155.5t400.5 -155.5t152.5 -403.5q0 -244 -154 -394.5t-399 -150.5q-244 0 -397.5 150.5t-153.5 394.5zM297 1247v238h238v-238h-238zM360 553q0 -365 265 -365q266 0 266 365q0 131 -66 217q-74 96 -200 96q-125 0 -199 -96 q-66 -88 -66 -217zM719 1247v238h237v-238h-237z" />
<glyph unicode="&#xf7;" horiz-adv-x="1128" d="M94 412v213h1041v-213h-1041zM457 111q0 70 44 113.5t113 43.5q70 0 114 -44t44 -113q0 -70 -44 -114t-114 -44t-113.5 44t-43.5 114zM457 926q0 70 43.5 113.5t113.5 43.5t114 -44t44 -113q0 -70 -44 -114t-114 -44t-113.5 44t-43.5 114z" />
<glyph unicode="&#xf8;" horiz-adv-x="1230" d="M74 520q0 248 151.5 403.5t399.5 155.5q178 0 315 -86l111 133l82 -67l-111 -133q156 -152 156 -406q0 -244 -154 -394.5t-399 -150.5q-182 0 -322 88l-113 -135l-84 68l115 137q-147 147 -147 387zM360 553q0 -123 37 -209l389 467q-66 55 -161 55q-125 0 -199 -96 q-66 -88 -66 -217zM459 250q63 -61 166 -62q266 0 266 365q0 94 -37 172z" />
<glyph unicode="&#xf9;" horiz-adv-x="1146" d="M141 389v666h275v-563q0 -139 22 -201q39 -102 156 -103q129 0 190 117q51 94 52 234v516h274v-1055h-260v143h-4q-137 -168 -346 -168q-180 0 -275 119q-84 109 -84 295zM309 1497h281l170 -299h-170z" />
<glyph unicode="&#xfa;" horiz-adv-x="1150" d="M141 389v666h275v-563q0 -139 22 -201q39 -102 156 -103q129 0 190 117q51 94 52 234v516h274v-1055h-260v143h-4q-137 -168 -346 -168q-180 0 -275 119q-84 109 -84 295zM475 1198l170 299h281l-281 -299h-170z" />
<glyph unicode="&#xfb;" horiz-adv-x="1179" d="M141 389v666h275v-563q0 -139 22 -201q39 -102 156 -103q129 0 190 117q51 94 52 234v516h274v-1055h-260v143h-4q-137 -168 -346 -168q-180 0 -275 119q-84 109 -84 295zM267 1196l170 299h280l-280 -299h-170zM670 1198l170 299h281l-281 -299h-170z" />
<glyph unicode="&#xfc;" horiz-adv-x="1155" d="M141 389v666h275v-563q0 -139 22 -201q39 -102 156 -103q129 0 190 117q51 94 52 234v516h274v-1055h-260v143h-4q-137 -168 -346 -168q-180 0 -275 119q-84 109 -84 295zM297 1247v238h238v-238h-238zM719 1247v238h237v-238h-237z" />
<glyph unicode="&#xfd;" horiz-adv-x="1077" d="M23 1055h303l254 -770h4l254 770h278l-395 -1047q-94 -248 -143 -315q-104 -147 -295 -148q-96 0 -195 29l18 203q51 -18 142 -19q82 0 130 52.5t48 136.5zM417 1198l170 299h281l-281 -299h-170z" />
<glyph unicode="&#xfe;" horiz-adv-x="1189" d="M141 -430v1966h275v-618h4q96 162 315 161q227 0 344 -166q98 -145 99 -383q0 -238 -99 -385q-117 -170 -344 -170q-205 0 -315 144h-4v-549h-275zM418 530q0 -133 53 -227q63 -115 188 -115q123 0 183 117q49 92 49 225q0 131 -47 222q-59 114 -180 114t-189 -112 q-57 -94 -57 -224z" />
<glyph unicode="&#xff;" horiz-adv-x="1079" d="M23 1055h303l254 -770h4l254 770h278l-395 -1047q-94 -248 -143 -315q-104 -147 -295 -148q-96 0 -195 29l18 203q51 -18 142 -19q82 0 130 52.5t48 136.5zM240 1247v238h238v-238h-238zM662 1247v238h237v-238h-237z" />
<glyph unicode="&#x152;" horiz-adv-x="1843" d="M96 707q0 358 209 548q201 186 561 187q70 0 211.5 -6t210.5 -6h535v-226h-533v-352h488v-225h-488v-402h541v-225h-543q-76 0 -229.5 -6t-229.5 -6q-733 0 -733 719zM395 707q0 -219 124 -356.5t341 -137.5q68 0 144 12v979q-84 12 -152 13q-221 0 -342 -148 q-115 -137 -115 -362z" />
<glyph unicode="&#x153;" horiz-adv-x="1906" d="M74 520q0 248 151.5 403.5t399.5 155.5q262 0 393 -180q123 180 368 180q474 0 474 -637h-689q2 -129 82 -197.5t211 -68.5q172 0 314 105l8 -224q-135 -82 -330 -82q-315 0 -428 175q-125 -174 -403 -175q-244 0 -397.5 150.5t-153.5 394.5zM360 526q0 -147 58 -239 q70 -111 207 -111q141 0 213 107q59 92 59 239q0 150 -59 244q-72 113 -213 113q-129 0 -203 -117q-62 -99 -62 -236zM1171 631h426q-8 248 -208 248q-98 0 -158 -73t-60 -175z" />
<glyph unicode="&#x178;" horiz-adv-x="1318" d="M23 1430h335l338 -601l344 601h303l-512 -865v-565h-286v565zM354 1571v238h238v-238h-238zM776 1571v238h237v-238h-237z" />
<glyph unicode="&#x2c6;" horiz-adv-x="632" d="M-39 1198l225 299h207l215 -299h-182l-139 176l-144 -176h-182z" />
<glyph unicode="&#x2dc;" horiz-adv-x="655" d="M-78 1235q0 92 59.5 170t149.5 78q59 0 162.5 -43t152.5 -43q90 0 91 100h110q0 -100 -47 -170q-55 -78 -151 -78q-68 0 -170.5 38t-145.5 38q-41 0 -70.5 -24.5t-29.5 -65.5h-111z" />
<glyph unicode="&#x2000;" horiz-adv-x="957" />
<glyph unicode="&#x2001;" horiz-adv-x="1915" />
<glyph unicode="&#x2002;" horiz-adv-x="957" />
<glyph unicode="&#x2003;" horiz-adv-x="1915" />
<glyph unicode="&#x2004;" horiz-adv-x="638" />
<glyph unicode="&#x2005;" horiz-adv-x="478" />
<glyph unicode="&#x2006;" horiz-adv-x="319" />
<glyph unicode="&#x2007;" horiz-adv-x="319" />
<glyph unicode="&#x2008;" horiz-adv-x="239" />
<glyph unicode="&#x2009;" horiz-adv-x="383" />
<glyph unicode="&#x200a;" horiz-adv-x="106" />
<glyph unicode="&#x2010;" horiz-adv-x="700" d="M72 438v226h538v-226h-538z" />
<glyph unicode="&#x2011;" horiz-adv-x="700" d="M72 438v226h538v-226h-538z" />
<glyph unicode="&#x2012;" horiz-adv-x="700" d="M72 438v226h538v-226h-538z" />
<glyph unicode="&#x2013;" horiz-adv-x="1114" d="M0 457v188h1024v-188h-1024z" />
<glyph unicode="&#x2014;" horiz-adv-x="2138" d="M0 457v188h2048v-188h-2048z" />
<glyph unicode="&#x2018;" horiz-adv-x="546" d="M70 918l186 512h244l-129 -512h-301z" />
<glyph unicode="&#x2019;" horiz-adv-x="544" d="M70 918l131 512h299l-189 -512h-241z" />
<glyph unicode="&#x201a;" horiz-adv-x="567" d="M70 -225l131 512h299l-189 -512h-241z" />
<glyph unicode="&#x201c;" horiz-adv-x="962" d="M70 918l186 512h244l-129 -512h-301zM485 918l187 512h243l-129 -512h-301z" />
<glyph unicode="&#x201d;" horiz-adv-x="960" d="M70 918l131 512h299l-189 -512h-241zM485 918l131 512h299l-188 -512h-242z" />
<glyph unicode="&#x201e;" horiz-adv-x="983" d="M70 -225l131 512h299l-189 -512h-241zM485 -225l131 512h299l-188 -512h-242z" />
<glyph unicode="&#x2022;" horiz-adv-x="935" d="M156 715q0 147 104.5 251.5t251.5 104.5t252.5 -104.5t105.5 -251.5t-105.5 -253t-252.5 -106t-251.5 106t-104.5 253z" />
<glyph unicode="&#x2026;" horiz-adv-x="1929" d="M199 0v287h286v-287h-286zM881 0v287h286v-287h-286zM1563 0v287h286v-287h-286z" />
<glyph unicode="&#x202f;" horiz-adv-x="383" />
<glyph unicode="&#x2039;" horiz-adv-x="647" d="M100 551l242 420h258l-225 -420l225 -420h-258z" />
<glyph unicode="&#x203a;" horiz-adv-x="643" d="M82 131l225 420l-225 420h258l242 -420l-242 -420h-258z" />
<glyph unicode="&#x205f;" horiz-adv-x="478" />
<glyph unicode="&#x2122;" horiz-adv-x="2027" d="M98 1266v164h693v-164h-240v-688h-213v688h-240zM952 578v852h297l203 -533l201 533h297v-852h-201v602h-4l-217 -602h-154l-217 602h-4v-602h-201z" />
<glyph unicode="&#xe000;" horiz-adv-x="1054" d="M0 0v1055h1055v-1055h-1055z" />
</font>
</defs>
</svg>
